<svg width="1230" height="529" viewBox="0 0 1230 529" fill="none" xmlns="http://www.w3.org/2000/svg">
<g filter="url(#filter0_i_64_1448)">
<path fill-rule="evenodd" clip-rule="evenodd" d="M49.0248 0C43.2249 17.4045 35.4267 32.9456 27.7581 48.2284L27.758 48.2285L27.758 48.2286C9.45522 84.7043 -8.10931 119.709 3.99617 175.064C15.2409 226.483 27.295 240.913 42.3539 258.94C53.2128 271.94 65.6341 286.809 80.441 318.767C85.2824 329.216 89.3875 339.191 93.3188 348.743C118.085 408.919 135.949 452.327 287.52 491.969C450.065 534.481 480.409 531.151 532.739 525.407L532.76 525.405C536.966 524.944 541.314 524.466 545.884 523.996C762.66 501.696 810.634 511.555 838.167 517.214C842.315 518.066 846 518.823 849.728 519.361C919.883 529.475 1065.52 540.432 1092.61 471.741C1116.06 412.294 1140.03 396.895 1167.97 378.95C1186.56 367.013 1206.9 353.95 1230 326.046V0H49.0248Z" fill="url(#paint0_linear_64_1448)"/>
</g>
<defs>
<filter id="filter0_i_64_1448" x="0" y="-10" width="1250" height="538.76" filterUnits="userSpaceOnUse" color-interpolation-filters="sRGB">
<feFlood flood-opacity="0" result="BackgroundImageFix"/>
<feBlend mode="normal" in="SourceGraphic" in2="BackgroundImageFix" result="shape"/>
<feColorMatrix in="SourceAlpha" type="matrix" values="0 0 0 0 0 0 0 0 0 0 0 0 0 0 0 0 0 0 127 0" result="hardAlpha"/>
<feOffset dx="20" dy="-10"/>
<feGaussianBlur stdDeviation="15"/>
<feComposite in2="hardAlpha" operator="arithmetic" k2="-1" k3="1"/>
<feColorMatrix type="matrix" values="0 0 0 0 1 0 0 0 0 1 0 0 0 0 1 0 0 0 1 0"/>
<feBlend mode="normal" in2="shape" result="effect1_innerShadow_64_1448"/>
</filter>
<linearGradient id="paint0_linear_64_1448" x1="69.0331" y1="410" x2="1213.03" y2="-19.4999" gradientUnits="userSpaceOnUse">
<stop stop-color="#651994"/>
<stop offset="0.316378" stop-color="#901384" stop-opacity="0.92"/>
<stop offset="0.529929" stop-color="#C01C61" stop-opacity="0.86"/>
<stop offset="0.691394" stop-color="#BF2C6A"/>
<stop offset="1" stop-color="#FF4752" stop-opacity="0.79"/>
</linearGradient>
</defs>
</svg>
